HIERARCHY
ROOT Pelvis
{
	OFFSET 0.000000 0.000000 0.000000
	CHANNELS 6 Xposition Yposition Zposition Xrotation Yrotation Zrotation
	JOINT LeftUpLeg_virtual
	{
		OFFSET 0.000000 0.000000 0.000000
		CHANNELS 3 Xrotation Yrotation Zrotation
		JOINT LeftUpLeg
		{
			OFFSET 18.735201 -5.666702 -4.541200
			CHANNELS 3 Xrotation Yrotation Zrotation
			JOINT LeftLeg
			{
				OFFSET -0.021200 -31.938179 0.493100
				CHANNELS 3 Xrotation Yrotation Zrotation
				JOINT LeftFoot
				{
					OFFSET 0.021200 -31.938179 -4.336299
					CHANNELS 3 Xrotation Yrotation Zrotation
					JOINT LeftToeBase
					{
						OFFSET 0.943001 -26.722000 15.023500
						CHANNELS 3 Xrotation Yrotation Zrotation
						End Site
						{
							OFFSET 0 0 0
						}
					}
				}
			}
		}
	}
	JOINT RightUpLeg_virtual
	{
		OFFSET 0.000000 0.000000 0.000000
		CHANNELS 3 Xrotation Yrotation Zrotation
		JOINT RightUpLeg
		{
			OFFSET -18.735201 -5.666702 -4.541200
			CHANNELS 3 Xrotation Yrotation Zrotation
			JOINT RightLeg
			{
				OFFSET 0.018946 -31.938133 0.493100
				CHANNELS 3 Xrotation Yrotation Zrotation
				JOINT RightFoot
				{
					OFFSET -0.018946 -31.938126 -4.336299
					CHANNELS 3 Xrotation Yrotation Zrotation
					JOINT RightToeBase
					{
						OFFSET -0.943001 -26.722004 15.023500
						CHANNELS 3 Xrotation Yrotation Zrotation
						End Site
						{
							OFFSET 0 0 0
						}
					}
				}
			}
		}
	}
	JOINT Hips_virtual
	{
		OFFSET 0.000000 0.000000 0.000000
		CHANNELS 3 Xrotation Yrotation Zrotation
		JOINT Hips
		{
			OFFSET -0.000000 -0.000000 -0.000000
			CHANNELS 3 Xrotation Yrotation Zrotation
			JOINT Spine
			{
				OFFSET 0.000000 10.199997 -0.299500
				CHANNELS 3 Xrotation Yrotation Zrotation
				JOINT Spine1
				{
					OFFSET 0.000000 11.900002 -1.516600
					CHANNELS 3 Xrotation Yrotation Zrotation
					JOINT Spine2
					{
						OFFSET 0.000000 13.600006 -2.842500
						CHANNELS 3 Xrotation Yrotation Zrotation
						JOINT Neck_virtual
						{
							OFFSET 0.000000 0.000000 0.000000
							CHANNELS 3 Xrotation Yrotation Zrotation
							JOINT Neck
							{
								OFFSET 0.000000 9.624100 -2.890100
								CHANNELS 3 Xrotation Yrotation Zrotation
								JOINT Head
								{
									OFFSET 0.000000 14.068802 -1.351900
									CHANNELS 3 Xrotation Yrotation Zrotation
									End Site
									{
										OFFSET 0 0 0
									}
								}
							}
						}
						JOINT LeftShoulder_virtual
						{
							OFFSET 0.000000 0.000000 0.000000
							CHANNELS 3 Xrotation Yrotation Zrotation
							JOINT LeftShoulder
							{
								OFFSET 15.263000 10.923401 -0.547700
								CHANNELS 3 Xrotation Yrotation Zrotation
								JOINT LeftArm
								{
									OFFSET 25.438599 -2.830597 -13.032500
									CHANNELS 3 Xrotation Yrotation Zrotation
									JOINT LeftForeArm
									{
										OFFSET 29.960503 0.000000 0.000000
										CHANNELS 3 Xrotation Yrotation Zrotation
										JOINT LeftHand
										{
											OFFSET 27.849251 0.000000 0.000000
											CHANNELS 3 Xrotation Yrotation Zrotation
											End Site
											{
												OFFSET 0 0 0
											}
										}
									}
								}
							}
						}
						JOINT RightShoulder_virtual
						{
							OFFSET 0.000000 0.000000 0.000000
							CHANNELS 3 Xrotation Yrotation Zrotation
							JOINT RightShoulder
							{
								OFFSET -15.263000 10.923401 -0.547700
								CHANNELS 3 Xrotation Yrotation Zrotation
								JOINT RightArm
								{
									OFFSET -25.438599 -2.830597 -13.032500
									CHANNELS 3 Xrotation Yrotation Zrotation
									JOINT RightForeArm
									{
										OFFSET -29.960503 0.000000 0.000000
										CHANNELS 3 Xrotation Yrotation Zrotation
										JOINT RightHand
										{
											OFFSET -27.849251 0.000000 0.000000
											CHANNELS 3 Xrotation Yrotation Zrotation
											End Site
											{
												OFFSET 0 0 0
											}
										}
									}
								}
							}
						}
					}
				}
			}
		}
	}
}
MOTION
Frames: 6
Frame Time: 0.03333333
-0.398104 124.833504 5.294309 0.000000 0.000000 0.000000 -10.820302 -45.971418 9.355879 -61.553412 -9.294215 26.650818 71.038168 -0.477433 3.985438 15.327185 -3.595170 -0.376586 0.000000 0.000000 0.000000 -74.407958 -64.774789 -5.428237 -102.853271 -21.593829 -6.020694 111.662173 14.146083 -2.009310 29.857670 16.281868 27.298248 0.000000 0.000000 0.000000 4.077115 -23.467405 2.619732 14.285632 -10.739619 0.225542 29.196794 -2.146776 -9.452219 16.834142 -0.222667 -5.934596 0.000000 0.000000 0.000000 6.512878 3.131052 -5.608248 2.181124 3.287071 -1.780135 0.000000 0.000000 0.000000 16.340801 0.077303 -1.829777 8.082383 -6.986022 4.836048 7.289314 -3.310137 14.985508 18.417327 -23.741126 18.176067 0.000000 0.000000 0.000000 17.364216 3.173546 -2.218389 16.560622 16.343417 -14.977060 -51.119243 -0.664217 14.698810 -28.442257 53.618836 19.884749 0.000000 0.000000 0.000000 
-0.397673 124.810150 5.256944 0.000000 0.000000 0.000000 -10.826517 -46.018147 9.363850 -61.560174 -9.314091 26.654007 71.003990 -0.479516 3.925492 15.293314 -3.567104 -0.466973 0.000000 0.000000 0.000000 -74.295301 -64.841349 -5.416622 -102.787394 -21.625600 -6.017457 111.508828 14.181487 -2.041517 29.742387 16.315368 27.294180 0.000000 0.000000 0.000000 4.017091 -23.617133 2.630356 14.228350 -10.816381 0.296783 29.288469 -2.154854 -9.434084 16.861323 -0.225971 -5.918318 0.000000 0.000000 0.000000 6.565403 3.129786 -5.594582 2.198487 3.287389 -1.784369 0.000000 0.000000 0.000000 16.360689 0.045453 -1.848121 8.107382 -7.036911 4.556534 7.564395 -3.222129 14.801027 18.411603 -23.748064 18.138085 0.000000 0.000000 0.000000 17.368575 3.202657 -2.180213 16.543671 16.515015 -14.748649 -51.022824 -0.602847 14.720765 -28.306367 53.700163 19.695445 0.000000 0.000000 0.000000 
-0.405146 124.785530 5.220284 0.000000 0.000000 0.000000 -10.818429 -46.071576 9.382145 -61.556356 -9.336128 26.662040 70.950974 -0.480175 3.870344 15.240457 -3.538929 -0.549092 0.000000 0.000000 0.000000 -74.161340 -64.906509 -5.388820 -102.713764 -21.657333 -6.013277 111.350313 14.216194 -2.072590 29.619190 16.344907 27.290214 0.000000 0.000000 0.000000 3.952498 -23.768712 2.639870 14.191040 -10.883668 0.379532 29.374950 -2.165132 -9.408906 16.884033 -0.230189 -5.897677 0.000000 0.000000 0.000000 6.617704 3.127100 -5.577148 2.214894 3.288436 -1.786938 0.000000 0.000000 0.000000 16.372607 0.013051 -1.861828 8.128548 -7.081538 4.290991 7.830083 -3.121366 14.630955 18.402124 -23.746355 18.109034 0.000000 0.000000 0.000000 17.370723 3.225561 -2.140216 16.519507 16.659140 -14.503809 -50.923428 -0.570568 14.727341 -28.167504 53.777262 19.497871 0.000000 0.000000 0.000000 
-0.423994 124.761841 5.181270 0.000000 0.000000 0.000000 -10.793229 -46.135404 9.412924 -61.540339 -9.361386 26.675939 70.880268 -0.479704 3.820362 15.170504 -3.511218 -0.622546 0.000000 0.000000 0.000000 -74.009034 -64.971560 -5.348807 -102.632724 -21.688958 -6.008832 111.185508 14.250291 -2.100879 29.487433 16.369392 27.288213 0.000000 0.000000 0.000000 3.883483 -23.926047 2.648497 14.171074 -10.953164 0.474692 29.455741 -2.177762 -9.376314 16.902264 -0.235409 -5.872454 0.000000 0.000000 0.000000 6.669532 3.122832 -5.555926 2.230299 3.289901 -1.787660 0.000000 0.000000 0.000000 16.374916 -0.020227 -1.871569 8.143865 -7.120777 4.036975 8.087057 -3.008482 14.473873 18.390472 -23.740471 18.089903 0.000000 0.000000 0.000000 17.370715 3.242850 -2.098535 16.488227 16.778349 -14.243339 -50.823629 -0.565989 14.719700 -28.026652 53.849184 19.293181 0.000000 0.000000 0.000000 
-0.458088 124.742424 5.136043 0.000000 0.000000 0.000000 -10.749931 -46.213057 9.456605 -61.511673 -9.390635 26.695719 70.793231 -0.478889 3.775041 15.085542 -3.484656 -0.688727 0.000000 0.000000 0.000000 -73.842077 -65.037751 -5.302643 -102.544376 -21.720164 -6.005305 111.012513 14.283875 -2.124333 29.346751 16.387712 27.290420 0.000000 0.000000 0.000000 3.809906 -24.093806 2.656351 14.165486 -11.036152 0.582712 29.530350 -2.192880 -9.336220 16.915904 -0.241729 -5.842548 0.000000 0.000000 0.000000 6.720808 3.116723 -5.530956 2.244767 3.291442 -1.786386 0.000000 0.000000 0.000000 16.366602 -0.054725 -1.878134 8.152048 -7.155424 3.791636 8.339736 -2.881924 14.328400 18.379276 -23.732249 18.081705 0.000000 0.000000 0.000000 17.368584 3.255127 -2.055593 16.450313 16.875581 -13.969068 -50.724991 -0.588011 14.698763 -27.883696 53.914378 19.081552 0.000000 0.000000 0.000000 
-0.510360 124.731499 5.080396 0.000000 0.000000 0.000000 -10.690674 -46.308160 9.510493 -61.472010 -9.424199 26.719596 70.690409 -0.478919 3.733003 14.986683 -3.459898 -0.750758 0.000000 0.000000 0.000000 -73.666636 -65.107180 -5.259789 -102.449101 -21.750468 -6.004424 110.828384 14.317225 -2.140591 29.196757 16.398880 27.299515 0.000000 0.000000 0.000000 3.731417 -24.276780 2.663381 14.170509 -11.142422 0.702850 29.598167 -2.210490 -9.289033 16.924700 -0.249184 -5.808097 0.000000 0.000000 0.000000 6.771562 3.108483 -5.502526 2.258401 3.292728 -1.783063 0.000000 0.000000 0.000000 16.347522 -0.090726 -1.882457 8.152791 -7.186053 3.551914 8.596212 -2.737710 14.192894 18.372140 -23.720480 18.085357 0.000000 0.000000 0.000000 17.364303 3.263013 -2.012184 16.406606 16.954003 -13.684139 -50.627900 -0.635506 14.665685 -27.738170 53.971656 18.863219 0.000000 0.000000 0.000000 
